<?xml version="1.0" encoding="utf-8"?>
<!-- Generator: Adobe Illustrator 23.0.1, SVG Export Plug-In . SVG Version: 6.00 Build 0)  -->
<svg version="1.1" id="Livello_1" xmlns="http://www.w3.org/2000/svg" xmlns:xlink="http://www.w3.org/1999/xlink" x="0px" y="0px"
	 viewBox="0 0 78 21" style="enable-background:new 0 0 78 21;" xml:space="preserve">
<style type="text/css">
	.st0{fill:none;stroke:#04103F;stroke-linecap:round;stroke-linejoin:round;stroke-miterlimit:10;}
	.st1{font-family:'MavenProBlack';}
	.st2{font-size:12px;}
	.st3{letter-spacing:-1;}
	.st4{font-size:10px;}
	.st5{fill:#FDBD2E;}
	.st6{fill:#FDBD2E;stroke:#000000;stroke-miterlimit:10;}
	.st7{font-family:'CarterOne';}
	.st8{font-size:12.1179px;}
	.st9{letter-spacing:-1.01;}
	.st10{fill:#FFFFFF;}
	.st11{filter:url(#Adobe_OpacityMaskFilter);}
	.st12{mask:url(#SVGID_1_);}
</style>
<g>
	<g>
		<text transform="matrix(1 0 0 1 34.584 10.7397)" class="st0 st1 st2">P</text>
		<text transform="matrix(1 0 0 1 41.7461 10.7397)" class="st0 st1 st2">o</text>
		<text transform="matrix(1 0 0 1 47.625 10.7397)" class="st0 st1 st2 st3">w</text>
		<text transform="matrix(1 0 0 1 56.6831 10.7397)" class="st0 st1 st2">e</text>
		<text transform="matrix(1 0 0 1 62.645 10.7397)" class="st0 st1 st2">r</text>
		<text transform="matrix(1 0 0 1 67.0122 10.7397)" class="st0 st1 st2">s</text>
		<text transform="matrix(0.583 0 0 0.583 72.6489 6.4096)" class="st0 st1 st4">™</text>
	</g>
	<text transform="matrix(1 0 0 1 34.584 10.7397)" class="st5 st1 st2">P</text>
	<text transform="matrix(1 0 0 1 41.7461 10.7397)" class="st5 st1 st2">o</text>
	<text transform="matrix(1 0 0 1 47.625 10.7397)" class="st5 st1 st2 st3">w</text>
	<text transform="matrix(1 0 0 1 56.6831 10.7397)" class="st5 st1 st2">e</text>
	<text transform="matrix(1 0 0 1 62.645 10.7397)" class="st5 st1 st2">r</text>
	<text transform="matrix(1 0 0 1 67.0122 10.7397)" class="st5 st1 st2">s</text>
	<text transform="matrix(0.583 0 0 0.583 72.6489 6.4096)" class="st5 st1 st4">™</text>
	<g>
		<text transform="matrix(0.9903 0 -0.1392 0.9903 -0.3908 10.7559)"><tspan x="0" y="0" class="st6 st7 st8 st9">W</tspan><tspan x="9.71" y="0" class="st6 st7 st8">a</tspan><tspan x="16.66" y="0" class="st6 st7 st8">c</tspan><tspan x="22.47" y="0" class="st6 st7 st8">k</tspan><tspan x="29.43" y="0" class="st6 st7 st8">y</tspan></text>
	</g>
	<g>
		<path class="st10" d="M12,2.36c0.01-0.02,0.01-0.04,0.01-0.05c0.01-0.04,0-0.09-0.01-0.13c-0.01-0.05-0.05-0.07-0.1-0.07
			c-0.01,0-0.02,0-0.03,0.01c-0.01,0-0.02,0.01-0.03,0.01l-1.78,0.4c-0.08,0.02-0.14,0.05-0.17,0.1c-0.03,0.05-0.06,0.1-0.09,0.17
			L8.11,6.54L7.82,2.93C7.81,2.85,7.79,2.79,7.75,2.76C7.71,2.72,7.63,2.71,7.52,2.71c-0.06,0-0.13,0-0.21,0.01
			C7.22,2.73,7.12,2.74,7,2.75C6.74,2.79,6.52,2.82,6.34,2.85C6.16,2.87,6.01,2.91,5.89,2.94C5.78,2.98,5.7,3.02,5.64,3.08
			C5.59,3.13,5.55,3.2,5.54,3.29c-0.01,0.05-0.01,0.12,0,0.21L5.7,5.27L4.45,6.99L3.9,2.34C3.88,2.26,3.86,2.2,3.83,2.17
			C3.8,2.13,3.73,2.11,3.61,2.11c-0.07,0-0.15,0-0.24,0.01c-0.1,0.01-0.22,0.02-0.36,0.04c-0.3,0.02-0.56,0.04-0.75,0.07
			c-0.2,0.03-0.36,0.07-0.48,0.12C1.65,2.4,1.56,2.46,1.5,2.52C1.44,2.59,1.41,2.67,1.4,2.77c0,0.03,0,0.06,0,0.09
			C1.4,2.89,1.41,2.92,1.41,2.95l1.15,8.01c0.02,0.11,0.07,0.17,0.18,0.17c0.05,0,0.1-0.01,0.15-0.03c0.06-0.02,0.12-0.05,0.18-0.09
			c0.06-0.04,0.13-0.07,0.19-0.12c0.06-0.04,0.12-0.09,0.18-0.13c0.06-0.05,0.14-0.11,0.24-0.18c0.1-0.08,0.2-0.15,0.3-0.24
			c0.1-0.08,0.19-0.16,0.27-0.24c0.08-0.08,0.14-0.14,0.16-0.19l1.62-2.58l0.5,3.57c0.01,0.06,0.03,0.11,0.05,0.16
			c0.02,0.05,0.07,0.07,0.13,0.07c0.04,0,0.1-0.02,0.17-0.05c0.22-0.1,0.4-0.17,0.54-0.23c0.14-0.06,0.26-0.11,0.35-0.15
			c0.09-0.04,0.17-0.09,0.23-0.13c0.06-0.04,0.11-0.1,0.16-0.16c0.05-0.06,0.1-0.15,0.16-0.25c0.05-0.1,0.12-0.23,0.21-0.39
			l3.46-7.37C11.99,2.4,12,2.38,12,2.36z"/>
		<path class="st10" d="M16.13,10.05c-0.03-0.04-0.06-0.09-0.08-0.16c-0.02-0.06-0.03-0.15-0.01-0.24c0-0.01,0-0.02,0-0.04
			c0-0.01,0.01-0.03,0.01-0.04l1.37-5.46c-0.31,0.02-0.6,0.04-0.89,0.07c-0.28,0.03-0.57,0.07-0.86,0.11
			c-0.09,0.01-0.16,0.02-0.2,0.03c-0.04,0.01-0.07,0.04-0.09,0.08c-0.02,0.04-0.04,0.09-0.05,0.16c-0.01,0.07-0.04,0.16-0.08,0.28
			c-0.21-0.19-0.43-0.34-0.68-0.46S14.07,4.2,13.78,4.2c-0.41,0-0.82,0.09-1.21,0.27s-0.75,0.44-1.08,0.77
			c-0.32,0.33-0.6,0.73-0.83,1.19c-0.23,0.46-0.38,0.97-0.46,1.53c-0.07,0.47-0.05,0.9,0.04,1.28s0.24,0.7,0.45,0.97
			c0.2,0.27,0.45,0.47,0.75,0.62c0.29,0.14,0.6,0.22,0.93,0.22c0.28,0,0.57-0.07,0.88-0.2c0.3-0.13,0.6-0.34,0.88-0.63
			c0.01,0.08,0.02,0.17,0.03,0.27c0.01,0.1,0.03,0.19,0.04,0.27c0.02,0.08,0.04,0.15,0.06,0.21c0.02,0.06,0.05,0.08,0.08,0.08
			c0.02,0,0.04,0,0.04-0.01l1.67-0.67c0.12-0.05,0.19-0.1,0.2-0.15c0-0.02-0.01-0.04-0.04-0.07C16.19,10.12,16.16,10.09,16.13,10.05
			z M14.78,6.72c-0.04,0.2-0.1,0.41-0.17,0.63l-0.49,1.73c-0.17,0.12-0.32,0.21-0.48,0.28c-0.15,0.07-0.29,0.1-0.41,0.1
			c-0.29,0-0.49-0.14-0.62-0.43c-0.12-0.29-0.14-0.74-0.05-1.36c0.02-0.17,0.07-0.37,0.14-0.59c0.07-0.22,0.16-0.43,0.28-0.63
			c0.12-0.2,0.25-0.37,0.42-0.5c0.16-0.14,0.35-0.21,0.56-0.21c0.1,0,0.2,0.01,0.28,0.04c0.09,0.03,0.17,0.06,0.25,0.11
			c0.08,0.05,0.15,0.09,0.21,0.14c0.07,0.05,0.13,0.1,0.18,0.15C14.86,6.35,14.82,6.53,14.78,6.72z"/>
		<path class="st10" d="M19.56,7.06c0.11-0.22,0.25-0.42,0.42-0.58c0.17-0.16,0.37-0.29,0.59-0.38c0.22-0.09,0.46-0.14,0.72-0.14
			c0.21,0,0.39,0.02,0.56,0.05c0.17,0.03,0.31,0.07,0.44,0.11c0.13,0.04,0.23,0.07,0.32,0.11c0.08,0.03,0.15,0.05,0.2,0.05
			c0.05,0,0.08-0.01,0.1-0.04c0.01-0.02,0.02-0.05,0.03-0.06c0.02-0.11,0.04-0.24,0.08-0.39c0.04-0.15,0.08-0.3,0.12-0.44
			c0.04-0.14,0.08-0.27,0.11-0.38s0.05-0.17,0.05-0.2c0,0-0.03-0.04-0.1-0.1c-0.07-0.06-0.18-0.13-0.33-0.2
			c-0.15-0.07-0.36-0.14-0.6-0.2S21.69,4.2,21.33,4.2c-0.54,0-1.04,0.1-1.53,0.29c-0.48,0.19-0.91,0.45-1.29,0.79
			c-0.38,0.33-0.7,0.72-0.95,1.17c-0.25,0.45-0.41,0.93-0.49,1.44c-0.07,0.47-0.04,0.9,0.07,1.29c0.11,0.39,0.3,0.72,0.55,1
			c0.25,0.28,0.56,0.49,0.94,0.65c0.37,0.15,0.79,0.23,1.25,0.23c0.16,0,0.33-0.01,0.51-0.02c0.18-0.01,0.36-0.03,0.53-0.07
			c0.18-0.04,0.35-0.08,0.53-0.14c0.17-0.06,0.34-0.14,0.49-0.23c0,0,0.02-0.06,0.04-0.17c0.02-0.11,0.04-0.25,0.07-0.41
			c0.02-0.16,0.05-0.33,0.07-0.51c0.02-0.18,0.05-0.33,0.06-0.45c0.01-0.06,0.01-0.09,0-0.11c-0.01-0.02-0.02-0.03-0.04-0.03
			c-0.02,0-0.04,0-0.05,0.01c-0.23,0.12-0.46,0.21-0.71,0.27c-0.25,0.06-0.49,0.1-0.72,0.1c-0.2,0-0.39-0.03-0.57-0.08
			c-0.18-0.05-0.33-0.14-0.45-0.26c-0.12-0.12-0.21-0.27-0.27-0.46c-0.06-0.19-0.07-0.42-0.03-0.69
			C19.37,7.52,19.44,7.28,19.56,7.06z"/>
		<path class="st10" d="M29.34,10.42c0.03-0.02,0.06-0.04,0.06-0.05c0.01-0.01,0.01-0.02,0.01-0.03c0-0.02,0-0.03-0.02-0.04
			c-0.02-0.01-0.03-0.02-0.05-0.03c-0.02-0.01-0.04-0.02-0.06-0.03c-0.02-0.01-0.04-0.02-0.05-0.04l-1.25-1.59l-0.71-1.02
			c0.16-0.14,0.3-0.28,0.43-0.4c0.13-0.12,0.24-0.22,0.33-0.31l2.12-2.05c0.1-0.09,0.14-0.15,0.15-0.18c0-0.04-0.03-0.05-0.09-0.05
			c-0.01,0-0.02,0-0.04,0s-0.03,0-0.04,0.01l-2.38,0.16c-0.01,0.01-0.04,0.04-0.08,0.08c-0.05,0.05-0.11,0.11-0.18,0.18
			c-0.07,0.07-0.15,0.15-0.25,0.25s-0.18,0.19-0.28,0.28L26.2,6.33l-0.47,0.44c0.04-0.14,0.08-0.32,0.13-0.54
			c0.05-0.22,0.11-0.46,0.18-0.72c0.06-0.26,0.13-0.53,0.2-0.81c0.07-0.28,0.14-0.56,0.2-0.83l0.5-2.03c0-0.01,0-0.02,0.01-0.02
			c0-0.01,0.01-0.02,0.01-0.02c0.01-0.07-0.01-0.11-0.05-0.13c-0.04-0.02-0.09-0.04-0.14-0.04c-0.07,0-0.14,0.01-0.21,0.04
			c-0.07,0.03-0.13,0.04-0.18,0.05l-1.7,0.39c-0.11,0.03-0.18,0.06-0.21,0.09c-0.03,0.03-0.05,0.06-0.06,0.1c0,0.02,0,0.04,0,0.06
			c0,0.02,0,0.04,0,0.06l-1.92,8.44c-0.01,0.07,0,0.12,0.04,0.15c0.04,0.03,0.08,0.04,0.14,0.04c0.07,0,0.14-0.01,0.21-0.04
			c0.07-0.02,0.13-0.04,0.18-0.06l1.6-0.5c0.12-0.03,0.19-0.06,0.23-0.08c0.03-0.02,0.05-0.05,0.06-0.1c0-0.02,0-0.03,0-0.05
			c0-0.02,0-0.04,0.01-0.07c0-0.02,0.01-0.06,0.03-0.13c0.02-0.07,0.04-0.16,0.06-0.26c0.02-0.1,0.05-0.21,0.08-0.32
			c0.03-0.11,0.05-0.22,0.08-0.32s0.04-0.19,0.06-0.26c0.02-0.07,0.03-0.12,0.03-0.13c0.01-0.04,0.02-0.07,0.03-0.09
			c0.01-0.02,0.03-0.04,0.05-0.06c0.02-0.02,0.04-0.03,0.06-0.04c0.02-0.01,0.04-0.02,0.06-0.04c0.04,0.08,0.11,0.18,0.19,0.31
			c0.08,0.13,0.17,0.28,0.27,0.44c0.1,0.16,0.21,0.33,0.32,0.51c0.11,0.18,0.22,0.35,0.32,0.52c0.11,0.17,0.2,0.32,0.3,0.46
			s0.17,0.25,0.23,0.34c0.05,0.06,0.09,0.11,0.13,0.13c0.04,0.02,0.09,0.04,0.13,0.04c0.06,0,0.14-0.02,0.25-0.05
			c0.11-0.03,0.23-0.08,0.36-0.13c0.13-0.05,0.27-0.11,0.41-0.17c0.14-0.06,0.28-0.13,0.4-0.19c0.13-0.06,0.24-0.12,0.33-0.17
			C29.24,10.48,29.3,10.45,29.34,10.42z"/>
		<path class="st10" d="M36.56,5l-0.09-0.03c0.03-0.05,0.06-0.12,0.07-0.15c0.01-0.07-0.02-0.11-0.09-0.13
			c-0.3-0.07-0.59-0.14-0.89-0.21c-0.3-0.07-0.59-0.17-0.86-0.28c-0.01,0-0.02,0-0.02,0c0,0-0.01,0-0.02,0
			c-0.04,0-0.07,0.02-0.1,0.06c-0.01,0.01-0.02,0.05-0.03,0.07l-0.16-0.05l-1.79,3.29l-0.14-3.3c0-0.04-0.02-0.06-0.07-0.06
			c-0.02,0-0.04,0-0.05,0.01c-0.31,0.11-0.63,0.21-0.97,0.28c-0.34,0.07-0.66,0.14-0.98,0.21c-0.06,0.02-0.1,0.05-0.11,0.1
			c0,0.03-0.01,0.06-0.01,0.1c0,0.04,0.01,0.09,0.02,0.16c0.04,0.33,0.08,0.67,0.12,1.03c0.04,0.36,0.08,0.73,0.12,1.1
			c0.04,0.37,0.08,0.74,0.12,1.1c0.04,0.36,0.08,0.7,0.12,1.03c0.04,0.32,0.08,0.62,0.11,0.9c0.02,0.14,0.04,0.27,0.05,0.39
			l-1.32,2.42l2.15,0.75l-2.83,6.35l7.6-9.31l-2.83-0.28L36.56,5z"/>
	</g>
	<defs>
		<filter id="Adobe_OpacityMaskFilter" filterUnits="userSpaceOnUse" x="0.83" y="1.81" width="34.11" height="16.07">
			<feColorMatrix  type="matrix" values="1 0 0 0 0  0 1 0 0 0  0 0 1 0 0  0 0 0 1 0"/>
		</filter>
	</defs>
	<mask maskUnits="userSpaceOnUse" x="0.83" y="1.81" width="34.11" height="16.07" id="SVGID_1_">
		<g class="st11">
			<g>
				<path class="st10" d="M12,2.36c0.01-0.02,0.01-0.04,0.01-0.05c0.01-0.04,0-0.09-0.01-0.13c-0.01-0.05-0.05-0.07-0.1-0.07
					c-0.01,0-0.02,0-0.03,0.01c-0.01,0-0.02,0.01-0.03,0.01l-1.78,0.4c-0.08,0.02-0.14,0.05-0.17,0.1c-0.03,0.05-0.06,0.1-0.09,0.17
					L8.11,6.54L7.82,2.93C7.81,2.85,7.79,2.79,7.75,2.76C7.71,2.72,7.63,2.71,7.52,2.71c-0.06,0-0.13,0-0.21,0.01
					C7.22,2.73,7.12,2.74,7,2.75C6.74,2.79,6.52,2.82,6.34,2.85C6.16,2.87,6.01,2.91,5.89,2.94C5.78,2.98,5.7,3.02,5.64,3.08
					C5.59,3.13,5.55,3.2,5.54,3.29c-0.01,0.05-0.01,0.12,0,0.21L5.7,5.27L4.45,6.99L3.9,2.34C3.88,2.26,3.86,2.2,3.83,2.17
					C3.8,2.13,3.73,2.11,3.61,2.11c-0.07,0-0.15,0-0.24,0.01c-0.1,0.01-0.22,0.02-0.36,0.04c-0.3,0.02-0.56,0.04-0.75,0.07
					c-0.2,0.03-0.36,0.07-0.48,0.12C1.65,2.4,1.56,2.46,1.5,2.52C1.44,2.59,1.41,2.67,1.4,2.77c0,0.03,0,0.06,0,0.09
					C1.4,2.89,1.41,2.92,1.41,2.95l1.15,8.01c0.02,0.11,0.07,0.17,0.18,0.17c0.05,0,0.1-0.01,0.15-0.03
					c0.06-0.02,0.12-0.05,0.18-0.09c0.06-0.04,0.13-0.07,0.19-0.12c0.06-0.04,0.12-0.09,0.18-0.13c0.06-0.05,0.14-0.11,0.24-0.18
					c0.1-0.08,0.2-0.15,0.3-0.24c0.1-0.08,0.19-0.16,0.27-0.24c0.08-0.08,0.14-0.14,0.16-0.19l1.62-2.58l0.5,3.57
					c0.01,0.06,0.03,0.11,0.05,0.16c0.02,0.05,0.07,0.07,0.13,0.07c0.04,0,0.1-0.02,0.17-0.05c0.22-0.1,0.4-0.17,0.54-0.23
					c0.14-0.06,0.26-0.11,0.35-0.15c0.09-0.04,0.17-0.09,0.23-0.13c0.06-0.04,0.11-0.1,0.16-0.16c0.05-0.06,0.1-0.15,0.16-0.25
					c0.05-0.1,0.12-0.23,0.21-0.39l3.46-7.37C11.99,2.4,12,2.38,12,2.36z"/>
				<path class="st10" d="M16.13,10.05c-0.03-0.04-0.06-0.09-0.08-0.16c-0.02-0.06-0.03-0.15-0.01-0.24c0-0.01,0-0.02,0-0.04
					c0-0.01,0.01-0.03,0.01-0.04l1.37-5.46c-0.31,0.02-0.6,0.04-0.89,0.07c-0.28,0.03-0.57,0.07-0.86,0.11
					c-0.09,0.01-0.16,0.02-0.2,0.03c-0.04,0.01-0.07,0.04-0.09,0.08c-0.02,0.04-0.04,0.09-0.05,0.16c-0.01,0.07-0.04,0.16-0.08,0.28
					c-0.21-0.19-0.43-0.34-0.68-0.46S14.07,4.2,13.78,4.2c-0.41,0-0.82,0.09-1.21,0.27s-0.75,0.44-1.08,0.77
					c-0.32,0.33-0.6,0.73-0.83,1.19c-0.23,0.46-0.38,0.97-0.46,1.53c-0.07,0.47-0.05,0.9,0.04,1.28s0.24,0.7,0.45,0.97
					c0.2,0.27,0.45,0.47,0.75,0.62c0.29,0.14,0.6,0.22,0.93,0.22c0.28,0,0.57-0.07,0.88-0.2c0.3-0.13,0.6-0.34,0.88-0.63
					c0.01,0.08,0.02,0.17,0.03,0.27c0.01,0.1,0.03,0.19,0.04,0.27c0.02,0.08,0.04,0.15,0.06,0.21c0.02,0.06,0.05,0.08,0.08,0.08
					c0.02,0,0.04,0,0.04-0.01l1.67-0.67c0.12-0.05,0.19-0.1,0.2-0.15c0-0.02-0.01-0.04-0.04-0.07
					C16.19,10.12,16.16,10.09,16.13,10.05z M14.78,6.72c-0.04,0.2-0.1,0.41-0.17,0.63l-0.49,1.73c-0.17,0.12-0.32,0.21-0.48,0.28
					c-0.15,0.07-0.29,0.1-0.41,0.1c-0.29,0-0.49-0.14-0.62-0.43c-0.12-0.29-0.14-0.74-0.05-1.36c0.02-0.17,0.07-0.37,0.14-0.59
					c0.07-0.22,0.16-0.43,0.28-0.63c0.12-0.2,0.25-0.37,0.42-0.5c0.16-0.14,0.35-0.21,0.56-0.21c0.1,0,0.2,0.01,0.28,0.04
					c0.09,0.03,0.17,0.06,0.25,0.11c0.08,0.05,0.15,0.09,0.21,0.14c0.07,0.05,0.13,0.1,0.18,0.15C14.86,6.35,14.82,6.53,14.78,6.72z
					"/>
				<path class="st10" d="M19.56,7.06c0.11-0.22,0.25-0.42,0.42-0.58c0.17-0.16,0.37-0.29,0.59-0.38c0.22-0.09,0.46-0.14,0.72-0.14
					c0.21,0,0.39,0.02,0.56,0.05c0.17,0.03,0.31,0.07,0.44,0.11c0.13,0.04,0.23,0.07,0.32,0.11c0.08,0.03,0.15,0.05,0.2,0.05
					c0.05,0,0.08-0.01,0.1-0.04c0.01-0.02,0.02-0.05,0.03-0.06c0.02-0.11,0.04-0.24,0.08-0.39c0.04-0.15,0.08-0.3,0.12-0.44
					c0.04-0.14,0.08-0.27,0.11-0.38s0.05-0.17,0.05-0.2c0,0-0.03-0.04-0.1-0.1c-0.07-0.06-0.18-0.13-0.33-0.2
					c-0.15-0.07-0.36-0.14-0.6-0.2S21.69,4.2,21.33,4.2c-0.54,0-1.04,0.1-1.53,0.29c-0.48,0.19-0.91,0.45-1.29,0.79
					c-0.38,0.33-0.7,0.72-0.95,1.17c-0.25,0.45-0.41,0.93-0.49,1.44c-0.07,0.47-0.04,0.9,0.07,1.29c0.11,0.39,0.3,0.72,0.55,1
					c0.25,0.28,0.56,0.49,0.94,0.65c0.37,0.15,0.79,0.23,1.25,0.23c0.16,0,0.33-0.01,0.51-0.02c0.18-0.01,0.36-0.03,0.53-0.07
					c0.18-0.04,0.35-0.08,0.53-0.14c0.17-0.06,0.34-0.14,0.49-0.23c0,0,0.02-0.06,0.04-0.17c0.02-0.11,0.04-0.25,0.07-0.41
					c0.02-0.16,0.05-0.33,0.07-0.51c0.02-0.18,0.05-0.33,0.06-0.45c0.01-0.06,0.01-0.09,0-0.11c-0.01-0.02-0.02-0.03-0.04-0.03
					c-0.02,0-0.04,0-0.05,0.01c-0.23,0.12-0.46,0.21-0.71,0.27c-0.25,0.06-0.49,0.1-0.72,0.1c-0.2,0-0.39-0.03-0.57-0.08
					c-0.18-0.05-0.33-0.14-0.45-0.26c-0.12-0.12-0.21-0.27-0.27-0.46c-0.06-0.19-0.07-0.42-0.03-0.69
					C19.37,7.52,19.44,7.28,19.56,7.06z"/>
				<path class="st10" d="M29.34,10.42c0.03-0.02,0.06-0.04,0.06-0.05c0.01-0.01,0.01-0.02,0.01-0.03c0-0.02,0-0.03-0.02-0.04
					c-0.02-0.01-0.03-0.02-0.05-0.03c-0.02-0.01-0.04-0.02-0.06-0.03c-0.02-0.01-0.04-0.02-0.05-0.04l-1.25-1.59l-0.71-1.02
					c0.16-0.14,0.3-0.28,0.43-0.4c0.13-0.12,0.24-0.22,0.33-0.31l2.12-2.05c0.1-0.09,0.14-0.15,0.15-0.18
					c0-0.04-0.03-0.05-0.09-0.05c-0.01,0-0.02,0-0.04,0s-0.03,0-0.04,0.01l-2.38,0.16c-0.01,0.01-0.04,0.04-0.08,0.08
					c-0.05,0.05-0.11,0.11-0.18,0.18c-0.07,0.07-0.15,0.15-0.25,0.25s-0.18,0.19-0.28,0.28L26.2,6.33l-0.47,0.44
					c0.04-0.14,0.08-0.32,0.13-0.54c0.05-0.22,0.11-0.46,0.18-0.72c0.06-0.26,0.13-0.53,0.2-0.81c0.07-0.28,0.14-0.56,0.2-0.83
					l0.5-2.03c0-0.01,0-0.02,0.01-0.02c0-0.01,0.01-0.02,0.01-0.02c0.01-0.07-0.01-0.11-0.05-0.13c-0.04-0.02-0.09-0.04-0.14-0.04
					c-0.07,0-0.14,0.01-0.21,0.04c-0.07,0.03-0.13,0.04-0.18,0.05l-1.7,0.39c-0.11,0.03-0.18,0.06-0.21,0.09
					c-0.03,0.03-0.05,0.06-0.06,0.1c0,0.02,0,0.04,0,0.06c0,0.02,0,0.04,0,0.06l-1.92,8.44c-0.01,0.07,0,0.12,0.04,0.15
					c0.04,0.03,0.08,0.04,0.14,0.04c0.07,0,0.14-0.01,0.21-0.04c0.07-0.02,0.13-0.04,0.18-0.06l1.6-0.5
					c0.12-0.03,0.19-0.06,0.23-0.08c0.03-0.02,0.05-0.05,0.06-0.1c0-0.02,0-0.03,0-0.05c0-0.02,0-0.04,0.01-0.07
					c0-0.02,0.01-0.06,0.03-0.13c0.02-0.07,0.04-0.16,0.06-0.26c0.02-0.1,0.05-0.21,0.08-0.32c0.03-0.11,0.05-0.22,0.08-0.32
					s0.04-0.19,0.06-0.26c0.02-0.07,0.03-0.12,0.03-0.13c0.01-0.04,0.02-0.07,0.03-0.09c0.01-0.02,0.03-0.04,0.05-0.06
					c0.02-0.02,0.04-0.03,0.06-0.04c0.02-0.01,0.04-0.02,0.06-0.04c0.04,0.08,0.11,0.18,0.19,0.31c0.08,0.13,0.17,0.28,0.27,0.44
					c0.1,0.16,0.21,0.33,0.32,0.51c0.11,0.18,0.22,0.35,0.32,0.52c0.11,0.17,0.2,0.32,0.3,0.46s0.17,0.25,0.23,0.34
					c0.05,0.06,0.09,0.11,0.13,0.13c0.04,0.02,0.09,0.04,0.13,0.04c0.06,0,0.14-0.02,0.25-0.05c0.11-0.03,0.23-0.08,0.36-0.13
					c0.13-0.05,0.27-0.11,0.41-0.17c0.14-0.06,0.28-0.13,0.4-0.19c0.13-0.06,0.24-0.12,0.33-0.17
					C29.24,10.48,29.3,10.45,29.34,10.42z"/>
				<path class="st10" d="M36.56,5l-0.09-0.03c0.03-0.05,0.06-0.12,0.07-0.15c0.01-0.07-0.02-0.11-0.09-0.13
					c-0.3-0.07-0.59-0.14-0.89-0.21c-0.3-0.07-0.59-0.17-0.86-0.28c-0.01,0-0.02,0-0.02,0c0,0-0.01,0-0.02,0
					c-0.04,0-0.07,0.02-0.1,0.06c-0.01,0.01-0.02,0.05-0.03,0.07l-0.16-0.05l-1.79,3.29l-0.14-3.3c0-0.04-0.02-0.06-0.07-0.06
					c-0.02,0-0.04,0-0.05,0.01c-0.31,0.11-0.63,0.21-0.97,0.28c-0.34,0.07-0.66,0.14-0.98,0.21c-0.06,0.02-0.1,0.05-0.11,0.1
					c0,0.03-0.01,0.06-0.01,0.1c0,0.04,0.01,0.09,0.02,0.16c0.04,0.33,0.08,0.67,0.12,1.03c0.04,0.36,0.08,0.73,0.12,1.1
					c0.04,0.37,0.08,0.74,0.12,1.1c0.04,0.36,0.08,0.7,0.12,1.03c0.04,0.32,0.08,0.62,0.11,0.9c0.02,0.14,0.04,0.27,0.05,0.39
					l-1.32,2.42l2.15,0.75l-2.83,6.35l7.6-9.31l-2.83-0.28L36.56,5z"/>
			</g>
		</g>
	</mask>
	<g class="st12">
		
			<rect x="1.57" y="1.83" transform="matrix(0.9899 -0.1414 0.1414 0.9899 -0.9876 0.3649)" class="st10" width="1" height="10.61"/>
		<polygon class="st10" points="5.37,3.1 5.56,5.42 6.05,4.86 5.91,2.6 		"/>
		<polygon class="st10" points="6.02,7.38 6.38,11.72 6.96,11.53 6.29,7.04 		"/>
		<polygon class="st10" points="9.75,2.37 8.09,6.26 8.16,7.29 10.79,2.07 		"/>
		<path class="st10" d="M11.63,4.43L9.66,7.88l0.42,2.97l3.77,1.26l0.87-0.78l-0.38-1.13c0,0-0.12,0.02-0.23,0.07
			c-1.95,1.17-4.15,0.24-3.37-2.91c0.78-3.16,3.42-2.74,4.64-2.25l0.1-0.31l0.17-0.68l-1.74-0.49L11.63,4.43z"/>
		<polygon class="st10" points="14.49,8.98 15.05,6.35 14.86,6.17 13.93,9.14 		"/>
		<path class="st10" d="M17.6,7.34c0.84-2.49,3.26-3.26,5.65-2.58c0,0,0.56,0.47,0.05-0.35s-5.44-1.34-6.45,3.02
			c-1.01,4.36,4.03,4.05,4.03,4.05s1.45-0.52,1.05-0.92c-1.2,0.44-2.55,0.39-3.47-0.23C17.53,9.71,17.18,8.58,17.6,7.34z"/>
		<polygon class="st10" points="22.24,11.25 22.79,11.23 24.87,2.04 24.26,1.97 		"/>
		<polygon class="st10" points="25.72,6.78 25.6,7.29 28.5,4.58 27.73,4.55 		"/>
		<polygon class="st10" points="25.41,8.6 27.07,11.88 28.06,11.32 25.85,8.39 		"/>
		<polygon class="st10" points="31.32,10.85 30.71,4.57 30.38,4.51 29.98,5.16 30.54,10.71 29.37,13.15 31.52,13.86 30.07,17.88 
			32.41,13.17 30.33,12.71 		"/>
		<polygon class="st10" points="34.34,4.27 32.56,7.6 32.58,8.64 34.93,4.44 		"/>
	</g>
	<path d="M36.91,4.6c-0.03-0.08-0.09-0.14-0.17-0.15L34.5,3.8c-0.08-0.01-0.15,0.04-0.2,0.11l-1.77,3.2l0.03,0.72l1.84-3.28
		l2.02,0.47l-2.96,5.37c-0.05,0.07-0.06,0.18-0.03,0.26c0.03,0.08,0.09,0.14,0.17,0.15l2.4,0.24l-6.27,7.67l2.22-4.98
		c0.03-0.08,0.04-0.16,0-0.24c-0.04-0.06-0.09-0.12-0.15-0.12l-2.08-0.43l1.17-2.1l-0.09-0.68l-1.38,2.48
		c-0.05,0.07-0.06,0.18-0.03,0.26c0.03,0.08,0.18,0.31,0.24,0.32l1.87,0.65l-2.81,6.17c-0.05,0.1-0.02,0.24,0.05,0.32
		c0.02,0.03,0.06,0.03,0.1,0.04c0.06,0.01,0.13-0.01,0.17-0.06l7.6-9.31c0.05-0.07,0.08-0.18,0.05-0.29
		c-0.03-0.11-0.09-0.17-0.17-0.18l-2.44-0.24l2.82-5.45C36.94,4.79,36.95,4.68,36.91,4.6z"/>
</g>
</svg>
