<?xml version="1.0" encoding="utf-8"?>
<!-- Generator: Adobe Illustrator 23.0.1, SVG Export Plug-In . SVG Version: 6.00 Build 0)  -->
<svg version="1.1" id="Livello_1" xmlns="http://www.w3.org/2000/svg" xmlns:xlink="http://www.w3.org/1999/xlink" x="0px" y="0px"
	 viewBox="0 0 78 21" style="enable-background:new 0 0 78 21;" xml:space="preserve">
<style type="text/css">
	.st0{fill:none;stroke:#04103F;stroke-linecap:round;stroke-linejoin:round;stroke-miterlimit:10;}
	.st1{fill:#FFFFFF;}
	.st2{fill:#FDBD2E;stroke:#000000;stroke-miterlimit:10;}
	.st3{fill:#FDBD2E;}
	.st4{filter:url(#Adobe_OpacityMaskFilter);}
	.st5{mask:url(#SVGID_1_);}
	.st6{fill:#FD9808;}
</style>
<g>
	<g>
		<g>
			<path class="st0" d="M35.83,10.23v-8h3.25c0.97,0,1.72,0.25,2.26,0.74c0.54,0.49,0.8,1.18,0.8,2.07c0,0.89-0.27,1.58-0.8,2.07
				c-0.54,0.49-1.29,0.73-2.26,0.73h-1.18v2.4H35.83z M37.89,6.15h0.98c0.41,0,0.72-0.11,0.91-0.33s0.29-0.48,0.29-0.79
				c0-0.3-0.1-0.56-0.29-0.79s-0.5-0.34-0.91-0.34h-0.98V6.15z"/>
			<path class="st0" d="M43.25,9.52c-0.5-0.53-0.75-1.29-0.75-2.28s0.25-1.75,0.75-2.28s1.21-0.79,2.13-0.79s1.63,0.26,2.13,0.79
				s0.75,1.29,0.75,2.28s-0.25,1.75-0.75,2.28s-1.21,0.79-2.13,0.79S43.75,10.05,43.25,9.52z M45.38,5.66
				c-0.54,0-0.82,0.53-0.82,1.58s0.27,1.58,0.82,1.58s0.82-0.53,0.82-1.58S45.92,5.66,45.38,5.66z"/>
			<path class="st0" d="M48.32,4.24h2.19l0.78,3.61l0.95-3.61h1.54l0.95,3.61l0.78-3.61h2.18l-2.12,5.99h-1.81L53,7.54l-0.74,2.69
				h-1.82L48.32,4.24z"/>
			<path class="st0" d="M57.66,7.29c0-0.95,0.22-1.71,0.66-2.29s1.14-0.86,2.08-0.86c0.89,0,1.57,0.28,2.03,0.84
				s0.69,1.25,0.69,2.07c0,0.24-0.01,0.46-0.04,0.65h-3.38c0,0.28,0.13,0.52,0.39,0.71s0.56,0.29,0.89,0.29
				c0.73,0,1.36-0.16,1.89-0.47v1.45c-0.65,0.41-1.43,0.62-2.36,0.62c-0.27,0-0.52-0.02-0.76-0.06s-0.49-0.13-0.76-0.27
				s-0.5-0.31-0.69-0.52c-0.19-0.21-0.35-0.5-0.48-0.88C57.73,8.21,57.66,7.78,57.66,7.29z M59.77,6.47h1.35
				c-0.02-0.23-0.08-0.46-0.21-0.68s-0.28-0.34-0.47-0.34s-0.35,0.1-0.47,0.31S59.79,6.21,59.77,6.47z"/>
			<path class="st0" d="M63.82,10.23V4.84c1.03-0.43,2.17-0.67,3.42-0.69v1.76c-0.5,0.01-0.95,0.04-1.36,0.1v4.21H63.82z"/>
			<path class="st0" d="M67.75,6.15c0-0.64,0.22-1.14,0.67-1.48s1.02-0.51,1.72-0.51c0.61,0,1.18,0.16,1.72,0.49V6
				c-0.52-0.29-0.98-0.44-1.38-0.44c-0.43,0-0.65,0.14-0.65,0.41c0,0.08,0.09,0.16,0.27,0.24s0.39,0.17,0.64,0.27
				s0.5,0.22,0.75,0.36s0.46,0.35,0.63,0.62s0.26,0.6,0.26,0.96c0,0.55-0.22,1-0.66,1.35s-1.01,0.52-1.72,0.52
				c-0.74,0-1.42-0.2-2.03-0.59v-1.6c0.62,0.49,1.23,0.73,1.81,0.73c0.36,0,0.54-0.11,0.54-0.33c0-0.11-0.09-0.2-0.26-0.28
				c-0.18-0.08-0.39-0.17-0.64-0.26s-0.51-0.21-0.76-0.34s-0.47-0.33-0.65-0.58S67.75,6.5,67.75,6.15z"/>
			<path class="st0" d="M73.15,2.51v-0.5h1.63v0.5h-0.57v1.45h-0.5V2.51H73.15z M75.06,3.95V2.01h0.5l0.46,0.66l0.46-0.66h0.5v1.94
				h-0.5v-1.2L76.01,3.4l-0.45-0.65v1.2H75.06z"/>
		</g>
	</g>
	<g>
		<path class="st1" d="M35.83,10.23v-8h3.25c0.97,0,1.72,0.25,2.26,0.74c0.54,0.49,0.8,1.18,0.8,2.07c0,0.89-0.27,1.58-0.8,2.07
			c-0.54,0.49-1.29,0.73-2.26,0.73h-1.18v2.4H35.83z M37.89,6.15h0.98c0.41,0,0.72-0.11,0.91-0.33s0.29-0.48,0.29-0.79
			c0-0.3-0.1-0.56-0.29-0.79s-0.5-0.34-0.91-0.34h-0.98V6.15z"/>
		<path class="st1" d="M43.25,9.52c-0.5-0.53-0.75-1.29-0.75-2.28s0.25-1.75,0.75-2.28s1.21-0.79,2.13-0.79s1.63,0.26,2.13,0.79
			s0.75,1.29,0.75,2.28s-0.25,1.75-0.75,2.28s-1.21,0.79-2.13,0.79S43.75,10.05,43.25,9.52z M45.38,5.66
			c-0.54,0-0.82,0.53-0.82,1.58s0.27,1.58,0.82,1.58s0.82-0.53,0.82-1.58S45.92,5.66,45.38,5.66z"/>
		<path class="st1" d="M48.32,4.24h2.19l0.78,3.61l0.95-3.61h1.54l0.95,3.61l0.78-3.61h2.18l-2.12,5.99h-1.81L53,7.54l-0.74,2.69
			h-1.82L48.32,4.24z"/>
		<path class="st1" d="M57.66,7.29c0-0.95,0.22-1.71,0.66-2.29s1.14-0.86,2.08-0.86c0.89,0,1.57,0.28,2.03,0.84s0.69,1.25,0.69,2.07
			c0,0.24-0.01,0.46-0.04,0.65h-3.38c0,0.28,0.13,0.52,0.39,0.71s0.56,0.29,0.89,0.29c0.73,0,1.36-0.16,1.89-0.47v1.45
			c-0.65,0.41-1.43,0.62-2.36,0.62c-0.27,0-0.52-0.02-0.76-0.06s-0.49-0.13-0.76-0.27s-0.5-0.31-0.69-0.52
			c-0.19-0.21-0.35-0.5-0.48-0.88C57.73,8.21,57.66,7.78,57.66,7.29z M59.77,6.47h1.35c-0.02-0.23-0.08-0.46-0.21-0.68
			s-0.28-0.34-0.47-0.34s-0.35,0.1-0.47,0.31S59.79,6.21,59.77,6.47z"/>
		<path class="st1" d="M63.82,10.23V4.84c1.03-0.43,2.17-0.67,3.42-0.69v1.76c-0.5,0.01-0.95,0.04-1.36,0.1v4.21H63.82z"/>
		<path class="st1" d="M67.75,6.15c0-0.64,0.22-1.14,0.67-1.48s1.02-0.51,1.72-0.51c0.61,0,1.18,0.16,1.72,0.49V6
			c-0.52-0.29-0.98-0.44-1.38-0.44c-0.43,0-0.65,0.14-0.65,0.41c0,0.08,0.09,0.16,0.27,0.24s0.39,0.17,0.64,0.27s0.5,0.22,0.75,0.36
			s0.46,0.35,0.63,0.62s0.26,0.6,0.26,0.96c0,0.55-0.22,1-0.66,1.35s-1.01,0.52-1.72,0.52c-0.74,0-1.42-0.2-2.03-0.59v-1.6
			c0.62,0.49,1.23,0.73,1.81,0.73c0.36,0,0.54-0.11,0.54-0.33c0-0.11-0.09-0.2-0.26-0.28c-0.18-0.08-0.39-0.17-0.64-0.26
			s-0.51-0.21-0.76-0.34s-0.47-0.33-0.65-0.58S67.75,6.5,67.75,6.15z"/>
		<path class="st1" d="M73.15,2.51v-0.5h1.63v0.5h-0.57v1.45h-0.5V2.51H73.15z M75.06,3.95V2.01h0.5l0.46,0.66l0.46-0.66h0.5v1.94
			h-0.5v-1.2L76.01,3.4l-0.45-0.65v1.2H75.06z"/>
	</g>
	<g>
		<g>
			<path class="st2" d="M10,2.28c0.03-0.07,0.06-0.13,0.09-0.17c0.03-0.04,0.09-0.08,0.17-0.1l1.78-0.4c0.01,0,0.02,0,0.03-0.01
				c0.01,0,0.02-0.01,0.03-0.01c0.05,0,0.09,0.02,0.1,0.07c0.02,0.05,0.02,0.09,0.01,0.13c0,0.01,0,0.02-0.01,0.05
				C12.21,1.87,12.2,1.89,12.2,1.9L8.74,9.27C8.65,9.43,8.58,9.56,8.53,9.66C8.47,9.76,8.42,9.84,8.37,9.9
				c-0.05,0.06-0.1,0.12-0.16,0.16c-0.06,0.04-0.14,0.09-0.23,0.13c-0.09,0.04-0.21,0.09-0.35,0.15c-0.14,0.06-0.32,0.13-0.54,0.23
				c-0.08,0.04-0.13,0.05-0.17,0.05c-0.06,0-0.11-0.02-0.13-0.07c-0.02-0.05-0.04-0.1-0.05-0.16l-0.5-3.57L4.61,9.42
				C4.59,9.46,4.53,9.52,4.45,9.6C4.37,9.68,4.28,9.76,4.18,9.84c-0.1,0.08-0.2,0.16-0.3,0.24c-0.1,0.08-0.18,0.14-0.24,0.18
				c-0.06,0.04-0.12,0.09-0.18,0.13c-0.06,0.04-0.13,0.08-0.19,0.12c-0.06,0.04-0.12,0.06-0.18,0.09c-0.06,0.02-0.11,0.03-0.15,0.03
				c-0.1,0-0.16-0.06-0.18-0.17L1.62,2.44c0-0.03-0.01-0.06-0.01-0.09c0-0.03-0.01-0.06,0-0.09c0.01-0.1,0.05-0.18,0.1-0.25
				c0.06-0.07,0.15-0.12,0.27-0.17C2.11,1.8,2.27,1.76,2.47,1.73c0.2-0.03,0.45-0.05,0.75-0.07c0.14-0.02,0.26-0.03,0.36-0.04
				C3.68,1.61,3.76,1.6,3.83,1.6c0.11,0,0.19,0.02,0.22,0.05c0.03,0.04,0.05,0.09,0.07,0.18l0.55,4.65l1.24-1.72L5.75,2.99
				c-0.01-0.09-0.01-0.16,0-0.21c0.01-0.09,0.05-0.16,0.1-0.22c0.05-0.06,0.14-0.1,0.25-0.13C6.22,2.4,6.37,2.36,6.55,2.34
				c0.18-0.03,0.4-0.06,0.67-0.09c0.12-0.02,0.21-0.03,0.3-0.04C7.6,2.2,7.67,2.2,7.73,2.2c0.12,0,0.2,0.02,0.23,0.05
				C8,2.28,8.02,2.34,8.03,2.42l0.29,3.61L10,2.28z"/>
			<path class="st2" d="M16.26,9.05c-0.01,0.02-0.01,0.03-0.01,0.04c0,0.01,0,0.03,0,0.04c-0.01,0.1-0.01,0.18,0.01,0.24
				c0.02,0.06,0.05,0.12,0.08,0.16s0.06,0.07,0.09,0.1c0.03,0.02,0.04,0.05,0.04,0.07c-0.01,0.05-0.07,0.1-0.2,0.15l-1.67,0.67
				c0,0-0.02,0.01-0.04,0.01c-0.03,0-0.06-0.03-0.08-0.08c-0.02-0.05-0.04-0.12-0.06-0.21c-0.02-0.08-0.03-0.17-0.04-0.27
				c-0.01-0.09-0.02-0.18-0.03-0.27c-0.29,0.29-0.58,0.49-0.88,0.63c-0.3,0.13-0.6,0.2-0.88,0.2c-0.33,0-0.64-0.07-0.93-0.22
				c-0.29-0.15-0.54-0.35-0.75-0.62c-0.2-0.27-0.35-0.59-0.45-0.97s-0.11-0.8-0.04-1.28c0.08-0.56,0.23-1.07,0.46-1.53
				c0.23-0.46,0.5-0.86,0.83-1.19c0.32-0.33,0.68-0.59,1.08-0.77s0.8-0.27,1.21-0.27c0.29,0,0.56,0.06,0.81,0.18
				s0.47,0.27,0.68,0.46c0.04-0.12,0.07-0.21,0.08-0.28c0.01-0.07,0.03-0.12,0.05-0.16c0.02-0.04,0.05-0.06,0.09-0.08
				c0.04-0.01,0.11-0.02,0.2-0.03c0.29-0.04,0.57-0.08,0.86-0.11c0.28-0.03,0.58-0.06,0.89-0.07L16.26,9.05z M14.82,6.84
				c0.07-0.22,0.13-0.43,0.17-0.63c0.04-0.2,0.08-0.38,0.11-0.54c-0.06-0.05-0.12-0.1-0.18-0.15c-0.06-0.05-0.14-0.1-0.21-0.14
				c-0.08-0.04-0.16-0.08-0.25-0.11c-0.09-0.03-0.18-0.04-0.28-0.04c-0.21,0-0.4,0.07-0.56,0.21c-0.16,0.14-0.3,0.3-0.42,0.5
				c-0.12,0.2-0.21,0.41-0.28,0.63c-0.07,0.22-0.11,0.42-0.14,0.59c-0.09,0.62-0.07,1.07,0.05,1.36c0.12,0.29,0.33,0.43,0.62,0.43
				c0.12,0,0.25-0.03,0.41-0.1c0.15-0.07,0.31-0.16,0.48-0.28L14.82,6.84z"/>
			<path class="st2" d="M17.28,7.37c0.07-0.51,0.23-0.99,0.49-1.44c0.25-0.45,0.57-0.84,0.95-1.17c0.38-0.33,0.81-0.59,1.29-0.79
				c0.48-0.19,0.99-0.29,1.53-0.29c0.36,0,0.67,0.03,0.92,0.09s0.45,0.12,0.6,0.2c0.15,0.07,0.27,0.14,0.33,0.2
				c0.07,0.06,0.1,0.09,0.1,0.1c0,0.02-0.02,0.09-0.05,0.2s-0.07,0.23-0.11,0.38c-0.04,0.14-0.08,0.29-0.12,0.44
				c-0.04,0.15-0.07,0.28-0.08,0.39c0,0.02-0.01,0.04-0.03,0.06c-0.02,0.02-0.05,0.04-0.1,0.04c-0.05,0-0.11-0.02-0.2-0.05
				c-0.08-0.03-0.19-0.07-0.32-0.11c-0.13-0.04-0.27-0.08-0.44-0.11c-0.17-0.03-0.35-0.05-0.56-0.05c-0.26,0-0.5,0.05-0.72,0.14
				c-0.22,0.09-0.42,0.22-0.59,0.38c-0.17,0.16-0.31,0.35-0.42,0.58c-0.11,0.22-0.19,0.46-0.22,0.72c-0.04,0.27-0.03,0.5,0.03,0.69
				c0.06,0.19,0.15,0.34,0.27,0.46c0.12,0.12,0.27,0.21,0.45,0.26c0.18,0.06,0.37,0.08,0.57,0.08c0.23,0,0.48-0.03,0.72-0.1
				c0.25-0.06,0.48-0.15,0.71-0.27c0.01,0,0.02-0.01,0.05-0.01c0.02,0,0.03,0.01,0.04,0.03c0.01,0.02,0.01,0.06,0,0.11
				c-0.02,0.12-0.04,0.28-0.06,0.45c-0.02,0.18-0.05,0.35-0.07,0.51c-0.02,0.16-0.05,0.3-0.07,0.41c-0.02,0.11-0.03,0.17-0.04,0.17
				c-0.15,0.09-0.32,0.17-0.49,0.23c-0.17,0.06-0.35,0.11-0.53,0.14c-0.18,0.04-0.36,0.06-0.53,0.07c-0.18,0.01-0.35,0.02-0.51,0.02
				c-0.46,0-0.87-0.08-1.25-0.23c-0.37-0.15-0.69-0.37-0.94-0.65c-0.25-0.28-0.43-0.61-0.55-1C17.24,8.27,17.22,7.84,17.28,7.37z"/>
			<path class="st2" d="M27.16,1.33l-0.5,2.03c-0.07,0.27-0.13,0.55-0.2,0.83c-0.07,0.28-0.14,0.55-0.2,0.81
				c-0.06,0.26-0.12,0.5-0.18,0.72c-0.05,0.22-0.1,0.4-0.13,0.54l0.47-0.44l0.76-0.77c0.1-0.09,0.19-0.19,0.28-0.28
				s0.17-0.18,0.25-0.25c0.07-0.07,0.13-0.13,0.18-0.18c0.05-0.05,0.07-0.08,0.08-0.08l2.38-0.16c0.01,0,0.02-0.01,0.04-0.01
				s0.03,0,0.04,0c0.07,0,0.1,0.02,0.09,0.05c0,0.03-0.05,0.09-0.15,0.18l-2.12,2.05c-0.09,0.09-0.21,0.19-0.33,0.31
				c-0.13,0.12-0.27,0.25-0.43,0.4l0.71,1.02l1.25,1.59c0.01,0.02,0.02,0.03,0.05,0.04c0.02,0.01,0.04,0.02,0.06,0.03
				c0.02,0.01,0.04,0.02,0.05,0.03c0.02,0.01,0.02,0.02,0.02,0.04c0,0.02-0.01,0.03-0.01,0.03c-0.01,0.01-0.03,0.02-0.06,0.05
				c-0.04,0.03-0.11,0.07-0.2,0.12c-0.09,0.05-0.21,0.11-0.33,0.17c-0.13,0.06-0.26,0.13-0.4,0.19c-0.14,0.06-0.28,0.12-0.41,0.17
				c-0.13,0.05-0.25,0.1-0.36,0.13c-0.11,0.03-0.19,0.05-0.25,0.05c-0.05,0-0.09-0.01-0.13-0.04c-0.04-0.02-0.09-0.07-0.13-0.13
				c-0.06-0.08-0.14-0.2-0.23-0.34s-0.19-0.29-0.3-0.46c-0.11-0.17-0.21-0.34-0.32-0.52c-0.11-0.18-0.21-0.35-0.32-0.51
				c-0.1-0.16-0.19-0.31-0.27-0.44C25.81,8.19,25.75,8.08,25.7,8c-0.02,0.02-0.04,0.03-0.06,0.04c-0.02,0.01-0.04,0.02-0.06,0.04
				c-0.02,0.02-0.04,0.03-0.05,0.06c-0.02,0.02-0.03,0.05-0.03,0.09c0,0.02-0.01,0.06-0.03,0.13c-0.02,0.07-0.04,0.16-0.06,0.26
				s-0.05,0.21-0.08,0.32c-0.03,0.11-0.05,0.22-0.08,0.32c-0.02,0.1-0.04,0.19-0.06,0.26c-0.02,0.07-0.03,0.12-0.03,0.13
				c0,0.03-0.01,0.05-0.01,0.07c0,0.02,0,0.03,0,0.05c-0.01,0.04-0.03,0.08-0.06,0.1c-0.03,0.02-0.11,0.05-0.23,0.08l-1.6,0.5
				c-0.05,0.02-0.1,0.03-0.18,0.06c-0.07,0.02-0.14,0.04-0.21,0.04c-0.05,0-0.1-0.01-0.14-0.04c-0.04-0.03-0.05-0.08-0.04-0.15
				l1.92-8.44c0-0.02,0-0.04,0-0.06c0-0.02,0-0.04,0-0.06c0-0.03,0.02-0.07,0.06-0.1c0.03-0.03,0.1-0.06,0.21-0.09l1.7-0.39
				c0.04-0.01,0.1-0.02,0.18-0.05c0.07-0.03,0.14-0.04,0.21-0.04c0.05,0,0.1,0.01,0.14,0.04c0.04,0.02,0.06,0.07,0.05,0.13
				c0,0.01,0,0.02-0.01,0.02C27.16,1.32,27.16,1.33,27.16,1.33z"/>
			<path class="st2" d="M31.76,12.9c-0.01,0.02-0.02,0.03-0.03,0.04c-0.01,0.01-0.03,0.01-0.05,0.01s-0.04,0-0.05-0.01
				c-0.13-0.05-0.26-0.09-0.38-0.13s-0.24-0.07-0.36-0.1c-0.12-0.03-0.24-0.06-0.37-0.08c-0.12-0.03-0.26-0.05-0.4-0.08
				c-0.04-0.01-0.07-0.02-0.09-0.04c-0.02-0.02-0.03-0.05-0.02-0.09c0-0.01,0.01-0.04,0.03-0.08s0.07-0.14,0.14-0.28
				s0.19-0.34,0.34-0.6s0.36-0.62,0.62-1.06c-0.03-0.2-0.06-0.43-0.1-0.7c-0.04-0.27-0.07-0.57-0.11-0.9
				c-0.04-0.33-0.08-0.67-0.12-1.03c-0.04-0.36-0.08-0.73-0.12-1.1c-0.04-0.37-0.08-0.73-0.12-1.1c-0.04-0.36-0.08-0.71-0.12-1.03
				c-0.02-0.06-0.03-0.11-0.02-0.16c0-0.04,0-0.07,0.01-0.1c0.01-0.05,0.04-0.09,0.11-0.1c0.31-0.07,0.64-0.14,0.98-0.21
				c0.34-0.07,0.66-0.17,0.97-0.28c0.01,0,0.03-0.01,0.05-0.01c0.05,0,0.08,0.02,0.07,0.06l0.16,3.94c0.02-0.05,0.06-0.13,0.13-0.25
				c0.06-0.12,0.14-0.27,0.22-0.44c0.08-0.17,0.18-0.36,0.28-0.57c0.1-0.21,0.21-0.42,0.32-0.63c0.11-0.21,0.22-0.43,0.32-0.64
				s0.21-0.41,0.3-0.59c0.09-0.18,0.17-0.35,0.24-0.49c0.07-0.14,0.12-0.25,0.16-0.32c0.02-0.04,0.05-0.06,0.1-0.06
				c0.01,0,0.02,0,0.02,0c0,0,0.01,0,0.02,0c0.28,0.11,0.56,0.21,0.86,0.28c0.3,0.07,0.6,0.14,0.89,0.21
				c0.07,0.02,0.1,0.06,0.09,0.13c-0.01,0.05-0.04,0.13-0.1,0.23L33.46,10L31.76,12.9z"/>
		</g>
	</g>
	<g>
		<path class="st3" d="M12.21,1.85c0.01-0.02,0.01-0.04,0.01-0.05c0.01-0.04,0-0.09-0.01-0.13c-0.01-0.05-0.05-0.07-0.1-0.07
			c-0.01,0-0.02,0-0.03,0.01c-0.01,0-0.02,0.01-0.03,0.01l-1.78,0.4c-0.08,0.02-0.14,0.05-0.17,0.1c-0.03,0.05-0.06,0.1-0.09,0.17
			L8.32,6.03L8.03,2.42C8.02,2.34,8,2.28,7.96,2.25C7.92,2.21,7.84,2.2,7.73,2.2c-0.06,0-0.13,0-0.21,0.01
			c-0.08,0.01-0.18,0.02-0.3,0.04C6.95,2.28,6.73,2.31,6.55,2.34C6.37,2.36,6.22,2.4,6.11,2.43c-0.11,0.03-0.2,0.08-0.25,0.13
			C5.8,2.62,5.76,2.69,5.75,2.78c-0.01,0.05-0.01,0.12,0,0.21l0.16,1.76L4.66,6.48L4.11,1.83C4.09,1.75,4.07,1.69,4.04,1.66
			C4.01,1.62,3.94,1.6,3.83,1.6c-0.07,0-0.15,0-0.24,0.01c-0.1,0.01-0.22,0.02-0.36,0.04C2.92,1.68,2.67,1.7,2.47,1.73
			C2.27,1.76,2.11,1.8,1.98,1.85c-0.12,0.05-0.21,0.1-0.27,0.17c-0.06,0.07-0.09,0.15-0.1,0.25c0,0.03,0,0.06,0,0.09
			c0.01,0.03,0.01,0.06,0.01,0.09l1.15,8.01c0.02,0.11,0.07,0.17,0.18,0.17c0.05,0,0.1-0.01,0.15-0.03
			c0.06-0.02,0.12-0.05,0.18-0.09c0.06-0.04,0.13-0.07,0.19-0.12c0.06-0.04,0.12-0.09,0.18-0.13c0.06-0.05,0.14-0.11,0.24-0.18
			c0.1-0.08,0.2-0.15,0.3-0.24c0.1-0.08,0.19-0.16,0.27-0.24c0.08-0.08,0.14-0.14,0.16-0.19l1.62-2.58l0.5,3.57
			c0.01,0.06,0.03,0.11,0.05,0.16c0.02,0.05,0.07,0.07,0.13,0.07c0.04,0,0.1-0.02,0.17-0.05c0.22-0.1,0.4-0.17,0.54-0.23
			c0.14-0.06,0.26-0.11,0.35-0.15c0.09-0.04,0.17-0.09,0.23-0.13c0.06-0.04,0.11-0.1,0.16-0.16c0.05-0.06,0.1-0.15,0.16-0.25
			c0.05-0.1,0.12-0.23,0.21-0.39L12.2,1.9C12.2,1.89,12.21,1.87,12.21,1.85z"/>
		<path class="st3" d="M16.34,9.54c-0.03-0.04-0.06-0.09-0.08-0.16c-0.02-0.06-0.03-0.15-0.01-0.24c0-0.01,0-0.02,0-0.04
			c0-0.01,0.01-0.03,0.01-0.04l1.37-5.46c-0.31,0.02-0.6,0.04-0.89,0.07c-0.28,0.03-0.57,0.07-0.86,0.11
			c-0.09,0.01-0.16,0.02-0.2,0.03c-0.04,0.01-0.07,0.04-0.09,0.08c-0.02,0.04-0.04,0.09-0.05,0.16c-0.01,0.07-0.04,0.16-0.08,0.28
			c-0.21-0.19-0.43-0.34-0.68-0.46s-0.51-0.18-0.81-0.18c-0.41,0-0.82,0.09-1.21,0.27c-0.39,0.18-0.75,0.44-1.08,0.77
			c-0.32,0.33-0.6,0.73-0.83,1.19c-0.23,0.46-0.38,0.97-0.46,1.53c-0.07,0.47-0.05,0.9,0.04,1.28s0.24,0.7,0.45,0.97
			c0.2,0.27,0.45,0.47,0.75,0.62c0.29,0.14,0.6,0.22,0.93,0.22c0.28,0,0.57-0.07,0.88-0.2c0.3-0.13,0.6-0.34,0.88-0.63
			c0.01,0.08,0.02,0.17,0.03,0.27c0.01,0.1,0.03,0.19,0.04,0.27c0.02,0.08,0.04,0.15,0.06,0.21c0.02,0.06,0.05,0.08,0.08,0.08
			c0.02,0,0.04,0,0.04-0.01l1.67-0.67c0.12-0.05,0.19-0.1,0.2-0.15c0-0.02-0.01-0.04-0.04-0.07C16.4,9.61,16.37,9.58,16.34,9.54z
			 M14.99,6.21c-0.04,0.2-0.1,0.41-0.17,0.63l-0.49,1.73c-0.17,0.12-0.32,0.21-0.48,0.28c-0.15,0.07-0.29,0.1-0.41,0.1
			c-0.29,0-0.49-0.14-0.62-0.43c-0.12-0.29-0.14-0.74-0.05-1.36c0.02-0.17,0.07-0.37,0.14-0.59c0.07-0.22,0.16-0.43,0.28-0.63
			c0.12-0.2,0.25-0.37,0.42-0.5c0.16-0.14,0.35-0.21,0.56-0.21c0.1,0,0.2,0.01,0.28,0.04c0.09,0.03,0.17,0.06,0.25,0.11
			c0.08,0.05,0.15,0.09,0.21,0.14c0.07,0.05,0.13,0.1,0.18,0.15C15.07,5.84,15.03,6.02,14.99,6.21z"/>
		<path class="st3" d="M19.77,6.55c0.11-0.22,0.25-0.42,0.42-0.58c0.17-0.16,0.37-0.29,0.59-0.38C21,5.5,21.24,5.45,21.49,5.45
			c0.21,0,0.39,0.02,0.56,0.05c0.17,0.03,0.31,0.07,0.44,0.11c0.13,0.04,0.23,0.07,0.32,0.11c0.08,0.03,0.15,0.05,0.2,0.05
			c0.05,0,0.08-0.01,0.1-0.04c0.01-0.02,0.02-0.05,0.03-0.06c0.02-0.11,0.04-0.24,0.08-0.39c0.04-0.15,0.08-0.3,0.12-0.44
			c0.04-0.14,0.08-0.27,0.11-0.38s0.05-0.17,0.05-0.2c0,0-0.03-0.04-0.1-0.1c-0.07-0.06-0.18-0.13-0.33-0.2
			c-0.15-0.07-0.36-0.14-0.6-0.2s-0.56-0.09-0.92-0.09c-0.54,0-1.04,0.1-1.53,0.29c-0.48,0.19-0.91,0.45-1.29,0.79
			c-0.38,0.33-0.7,0.72-0.95,1.17c-0.25,0.45-0.41,0.93-0.49,1.44c-0.07,0.47-0.04,0.9,0.07,1.29c0.11,0.39,0.3,0.72,0.55,1
			c0.25,0.28,0.56,0.49,0.94,0.65c0.37,0.15,0.79,0.23,1.25,0.23c0.16,0,0.33-0.01,0.51-0.02c0.18-0.01,0.36-0.03,0.53-0.07
			c0.18-0.04,0.35-0.08,0.53-0.14c0.17-0.06,0.34-0.14,0.49-0.23c0,0,0.02-0.06,0.04-0.17c0.02-0.11,0.04-0.25,0.07-0.41
			c0.02-0.16,0.05-0.33,0.07-0.51c0.02-0.18,0.05-0.33,0.06-0.45c0.01-0.06,0.01-0.09,0-0.11c-0.01-0.02-0.02-0.03-0.04-0.03
			c-0.02,0-0.04,0-0.05,0.01c-0.23,0.12-0.46,0.21-0.71,0.27c-0.25,0.06-0.49,0.1-0.72,0.1c-0.2,0-0.39-0.03-0.57-0.08
			c-0.18-0.05-0.33-0.14-0.45-0.26c-0.12-0.12-0.21-0.27-0.27-0.46c-0.06-0.19-0.07-0.42-0.03-0.69
			C19.58,7.01,19.66,6.77,19.77,6.55z"/>
		<path class="st3" d="M29.55,9.91c0.03-0.02,0.06-0.04,0.06-0.05c0.01-0.01,0.01-0.02,0.01-0.03c0-0.02,0-0.03-0.02-0.04
			c-0.02-0.01-0.03-0.02-0.05-0.03c-0.02-0.01-0.04-0.02-0.06-0.03c-0.02-0.01-0.04-0.02-0.05-0.04L28.19,8.1l-0.71-1.02
			c0.16-0.14,0.3-0.28,0.43-0.4c0.13-0.12,0.24-0.22,0.33-0.31l2.12-2.05c0.1-0.09,0.14-0.15,0.15-0.18c0-0.04-0.03-0.05-0.09-0.05
			c-0.01,0-0.02,0-0.04,0s-0.03,0-0.04,0.01l-2.38,0.16c-0.01,0.01-0.04,0.04-0.08,0.08c-0.05,0.05-0.11,0.11-0.18,0.18
			c-0.07,0.07-0.15,0.15-0.25,0.25s-0.18,0.19-0.28,0.28l-0.76,0.77l-0.47,0.44c0.04-0.14,0.08-0.32,0.13-0.54
			c0.05-0.22,0.11-0.46,0.18-0.72c0.06-0.26,0.13-0.53,0.2-0.81c0.07-0.28,0.14-0.56,0.2-0.83l0.5-2.03c0-0.01,0-0.02,0.01-0.02
			c0-0.01,0.01-0.02,0.01-0.02c0.01-0.07-0.01-0.11-0.05-0.13c-0.04-0.02-0.09-0.04-0.14-0.04c-0.07,0-0.14,0.01-0.21,0.04
			c-0.07,0.03-0.13,0.04-0.18,0.05l-1.7,0.39c-0.11,0.03-0.18,0.06-0.21,0.09c-0.03,0.03-0.05,0.06-0.06,0.1c0,0.02,0,0.04,0,0.06
			c0,0.02,0,0.04,0,0.06l-1.92,8.44c-0.01,0.07,0,0.12,0.04,0.15c0.04,0.03,0.08,0.04,0.14,0.04c0.07,0,0.14-0.01,0.21-0.04
			c0.07-0.02,0.13-0.04,0.18-0.06l1.6-0.5c0.12-0.03,0.19-0.06,0.23-0.08c0.03-0.02,0.05-0.05,0.06-0.1c0-0.02,0-0.03,0-0.05
			c0-0.02,0-0.04,0.01-0.07c0-0.02,0.01-0.06,0.03-0.13c0.02-0.07,0.04-0.16,0.06-0.26c0.02-0.1,0.05-0.21,0.08-0.32
			c0.03-0.11,0.05-0.22,0.08-0.32s0.04-0.19,0.06-0.26c0.02-0.07,0.03-0.12,0.03-0.13c0.01-0.04,0.02-0.07,0.03-0.09
			c0.01-0.02,0.03-0.04,0.05-0.06c0.02-0.02,0.04-0.03,0.06-0.04C25.66,8.04,25.68,8.02,25.7,8c0.04,0.08,0.11,0.18,0.19,0.31
			c0.08,0.13,0.17,0.28,0.27,0.44c0.1,0.16,0.21,0.33,0.32,0.51c0.11,0.18,0.22,0.35,0.32,0.52c0.11,0.17,0.2,0.32,0.3,0.46
			s0.17,0.25,0.23,0.34c0.05,0.06,0.09,0.11,0.13,0.13c0.04,0.02,0.09,0.04,0.13,0.04c0.06,0,0.14-0.02,0.25-0.05
			c0.11-0.03,0.23-0.08,0.36-0.13c0.13-0.05,0.27-0.11,0.41-0.17c0.14-0.06,0.28-0.13,0.4-0.19c0.13-0.06,0.24-0.12,0.33-0.17
			C29.45,9.97,29.52,9.93,29.55,9.91z"/>
		<path class="st3" d="M36.77,4.49l-0.09-0.03c0.03-0.05,0.06-0.12,0.07-0.15c0.01-0.07-0.02-0.11-0.09-0.13
			c-0.3-0.07-0.59-0.14-0.89-0.21c-0.3-0.07-0.59-0.17-0.86-0.28c-0.01,0-0.02,0-0.02,0c0,0-0.01,0-0.02,0
			c-0.04,0-0.07,0.02-0.1,0.06c-0.01,0.01-0.02,0.05-0.03,0.07l-0.16-0.05l-1.79,3.29l-0.14-3.3c0-0.04-0.02-0.06-0.07-0.06
			c-0.02,0-0.04,0-0.05,0.01c-0.31,0.11-0.63,0.21-0.97,0.28c-0.34,0.07-0.66,0.14-0.98,0.21c-0.06,0.02-0.1,0.05-0.11,0.1
			c0,0.03-0.01,0.06-0.01,0.1c0,0.04,0.01,0.09,0.02,0.16c0.04,0.33,0.08,0.67,0.12,1.03c0.04,0.36,0.08,0.73,0.12,1.1
			c0.04,0.37,0.08,0.74,0.12,1.1c0.04,0.36,0.08,0.7,0.12,1.03c0.04,0.32,0.08,0.62,0.11,0.9c0.02,0.14,0.04,0.27,0.05,0.39
			l-1.32,2.42l2.15,0.75l-2.83,6.35l7.6-9.31l-2.83-0.28L36.77,4.49z"/>
	</g>
	<defs>
		<filter id="Adobe_OpacityMaskFilter" filterUnits="userSpaceOnUse" x="1.04" y="1.3" width="34.11" height="16.07">
			<feColorMatrix  type="matrix" values="1 0 0 0 0  0 1 0 0 0  0 0 1 0 0  0 0 0 1 0"/>
		</filter>
	</defs>
	<mask maskUnits="userSpaceOnUse" x="1.04" y="1.3" width="34.11" height="16.07" id="SVGID_1_">
		<g class="st4">
			<g>
				<path class="st1" d="M12.21,1.85c0.01-0.02,0.01-0.04,0.01-0.05c0.01-0.04,0-0.09-0.01-0.13c-0.01-0.05-0.05-0.07-0.1-0.07
					c-0.01,0-0.02,0-0.03,0.01c-0.01,0-0.02,0.01-0.03,0.01l-1.78,0.4c-0.08,0.02-0.14,0.05-0.17,0.1c-0.03,0.05-0.06,0.1-0.09,0.17
					L8.32,6.03L8.03,2.42C8.02,2.34,8,2.28,7.96,2.25C7.92,2.21,7.84,2.2,7.73,2.2c-0.06,0-0.13,0-0.21,0.01
					c-0.08,0.01-0.18,0.02-0.3,0.04C6.95,2.28,6.73,2.31,6.55,2.34C6.37,2.36,6.22,2.4,6.11,2.43c-0.11,0.03-0.2,0.08-0.25,0.13
					C5.8,2.62,5.76,2.69,5.75,2.78c-0.01,0.05-0.01,0.12,0,0.21l0.16,1.76L4.66,6.48L4.11,1.83C4.09,1.75,4.07,1.69,4.04,1.66
					C4.01,1.62,3.94,1.6,3.83,1.6c-0.07,0-0.15,0-0.24,0.01c-0.1,0.01-0.22,0.02-0.36,0.04C2.92,1.68,2.67,1.7,2.47,1.73
					C2.27,1.76,2.11,1.8,1.98,1.85c-0.12,0.05-0.21,0.1-0.27,0.17c-0.06,0.07-0.09,0.15-0.1,0.25c0,0.03,0,0.06,0,0.09
					c0.01,0.03,0.01,0.06,0.01,0.09l1.15,8.01c0.02,0.11,0.07,0.17,0.18,0.17c0.05,0,0.1-0.01,0.15-0.03
					c0.06-0.02,0.12-0.05,0.18-0.09c0.06-0.04,0.13-0.07,0.19-0.12c0.06-0.04,0.12-0.09,0.18-0.13c0.06-0.05,0.14-0.11,0.24-0.18
					c0.1-0.08,0.2-0.15,0.3-0.24c0.1-0.08,0.19-0.16,0.27-0.24c0.08-0.08,0.14-0.14,0.16-0.19l1.62-2.58l0.5,3.57
					c0.01,0.06,0.03,0.11,0.05,0.16c0.02,0.05,0.07,0.07,0.13,0.07c0.04,0,0.1-0.02,0.17-0.05c0.22-0.1,0.4-0.17,0.54-0.23
					c0.14-0.06,0.26-0.11,0.35-0.15c0.09-0.04,0.17-0.09,0.23-0.13c0.06-0.04,0.11-0.1,0.16-0.16c0.05-0.06,0.1-0.15,0.16-0.25
					c0.05-0.1,0.12-0.23,0.21-0.39L12.2,1.9C12.2,1.89,12.21,1.87,12.21,1.85z"/>
				<path class="st1" d="M16.34,9.54c-0.03-0.04-0.06-0.09-0.08-0.16c-0.02-0.06-0.03-0.15-0.01-0.24c0-0.01,0-0.02,0-0.04
					c0-0.01,0.01-0.03,0.01-0.04l1.37-5.46c-0.31,0.02-0.6,0.04-0.89,0.07c-0.28,0.03-0.57,0.07-0.86,0.11
					c-0.09,0.01-0.16,0.02-0.2,0.03c-0.04,0.01-0.07,0.04-0.09,0.08c-0.02,0.04-0.04,0.09-0.05,0.16c-0.01,0.07-0.04,0.16-0.08,0.28
					c-0.21-0.19-0.43-0.34-0.68-0.46s-0.51-0.18-0.81-0.18c-0.41,0-0.82,0.09-1.21,0.27c-0.39,0.18-0.75,0.44-1.08,0.77
					c-0.32,0.33-0.6,0.73-0.83,1.19c-0.23,0.46-0.38,0.97-0.46,1.53c-0.07,0.47-0.05,0.9,0.04,1.28s0.24,0.7,0.45,0.97
					c0.2,0.27,0.45,0.47,0.75,0.62c0.29,0.14,0.6,0.22,0.93,0.22c0.28,0,0.57-0.07,0.88-0.2c0.3-0.13,0.6-0.34,0.88-0.63
					c0.01,0.08,0.02,0.17,0.03,0.27c0.01,0.1,0.03,0.19,0.04,0.27c0.02,0.08,0.04,0.15,0.06,0.21c0.02,0.06,0.05,0.08,0.08,0.08
					c0.02,0,0.04,0,0.04-0.01l1.67-0.67c0.12-0.05,0.19-0.1,0.2-0.15c0-0.02-0.01-0.04-0.04-0.07C16.4,9.61,16.37,9.58,16.34,9.54z
					 M14.99,6.21c-0.04,0.2-0.1,0.41-0.17,0.63l-0.49,1.73c-0.17,0.12-0.32,0.21-0.48,0.28c-0.15,0.07-0.29,0.1-0.41,0.1
					c-0.29,0-0.49-0.14-0.62-0.43c-0.12-0.29-0.14-0.74-0.05-1.36c0.02-0.17,0.07-0.37,0.14-0.59c0.07-0.22,0.16-0.43,0.28-0.63
					c0.12-0.2,0.25-0.37,0.42-0.5c0.16-0.14,0.35-0.21,0.56-0.21c0.1,0,0.2,0.01,0.28,0.04c0.09,0.03,0.17,0.06,0.25,0.11
					c0.08,0.05,0.15,0.09,0.21,0.14c0.07,0.05,0.13,0.1,0.18,0.15C15.07,5.84,15.03,6.02,14.99,6.21z"/>
				<path class="st1" d="M19.77,6.55c0.11-0.22,0.25-0.42,0.42-0.58c0.17-0.16,0.37-0.29,0.59-0.38C21,5.5,21.24,5.45,21.49,5.45
					c0.21,0,0.39,0.02,0.56,0.05c0.17,0.03,0.31,0.07,0.44,0.11c0.13,0.04,0.23,0.07,0.32,0.11c0.08,0.03,0.15,0.05,0.2,0.05
					c0.05,0,0.08-0.01,0.1-0.04c0.01-0.02,0.02-0.05,0.03-0.06c0.02-0.11,0.04-0.24,0.08-0.39c0.04-0.15,0.08-0.3,0.12-0.44
					c0.04-0.14,0.08-0.27,0.11-0.38s0.05-0.17,0.05-0.2c0,0-0.03-0.04-0.1-0.1c-0.07-0.06-0.18-0.13-0.33-0.2
					c-0.15-0.07-0.36-0.14-0.6-0.2s-0.56-0.09-0.92-0.09c-0.54,0-1.04,0.1-1.53,0.29c-0.48,0.19-0.91,0.45-1.29,0.79
					c-0.38,0.33-0.7,0.72-0.95,1.17c-0.25,0.45-0.41,0.93-0.49,1.44c-0.07,0.47-0.04,0.9,0.07,1.29c0.11,0.39,0.3,0.72,0.55,1
					c0.25,0.28,0.56,0.49,0.94,0.65c0.37,0.15,0.79,0.23,1.25,0.23c0.16,0,0.33-0.01,0.51-0.02c0.18-0.01,0.36-0.03,0.53-0.07
					c0.18-0.04,0.35-0.08,0.53-0.14c0.17-0.06,0.34-0.14,0.49-0.23c0,0,0.02-0.06,0.04-0.17c0.02-0.11,0.04-0.25,0.07-0.41
					c0.02-0.16,0.05-0.33,0.07-0.51c0.02-0.18,0.05-0.33,0.06-0.45c0.01-0.06,0.01-0.09,0-0.11c-0.01-0.02-0.02-0.03-0.04-0.03
					c-0.02,0-0.04,0-0.05,0.01c-0.23,0.12-0.46,0.21-0.71,0.27c-0.25,0.06-0.49,0.1-0.72,0.1c-0.2,0-0.39-0.03-0.57-0.08
					c-0.18-0.05-0.33-0.14-0.45-0.26c-0.12-0.12-0.21-0.27-0.27-0.46c-0.06-0.19-0.07-0.42-0.03-0.69
					C19.58,7.01,19.66,6.77,19.77,6.55z"/>
				<path class="st1" d="M29.55,9.91c0.03-0.02,0.06-0.04,0.06-0.05c0.01-0.01,0.01-0.02,0.01-0.03c0-0.02,0-0.03-0.02-0.04
					c-0.02-0.01-0.03-0.02-0.05-0.03c-0.02-0.01-0.04-0.02-0.06-0.03c-0.02-0.01-0.04-0.02-0.05-0.04L28.19,8.1l-0.71-1.02
					c0.16-0.14,0.3-0.28,0.43-0.4c0.13-0.12,0.24-0.22,0.33-0.31l2.12-2.05c0.1-0.09,0.14-0.15,0.15-0.18
					c0-0.04-0.03-0.05-0.09-0.05c-0.01,0-0.02,0-0.04,0s-0.03,0-0.04,0.01l-2.38,0.16c-0.01,0.01-0.04,0.04-0.08,0.08
					c-0.05,0.05-0.11,0.11-0.18,0.18c-0.07,0.07-0.15,0.15-0.25,0.25s-0.18,0.19-0.28,0.28l-0.76,0.77l-0.47,0.44
					c0.04-0.14,0.08-0.32,0.13-0.54c0.05-0.22,0.11-0.46,0.18-0.72c0.06-0.26,0.13-0.53,0.2-0.81c0.07-0.28,0.14-0.56,0.2-0.83
					l0.5-2.03c0-0.01,0-0.02,0.01-0.02c0-0.01,0.01-0.02,0.01-0.02c0.01-0.07-0.01-0.11-0.05-0.13c-0.04-0.02-0.09-0.04-0.14-0.04
					c-0.07,0-0.14,0.01-0.21,0.04c-0.07,0.03-0.13,0.04-0.18,0.05l-1.7,0.39c-0.11,0.03-0.18,0.06-0.21,0.09
					c-0.03,0.03-0.05,0.06-0.06,0.1c0,0.02,0,0.04,0,0.06c0,0.02,0,0.04,0,0.06l-1.92,8.44c-0.01,0.07,0,0.12,0.04,0.15
					c0.04,0.03,0.08,0.04,0.14,0.04c0.07,0,0.14-0.01,0.21-0.04c0.07-0.02,0.13-0.04,0.18-0.06l1.6-0.5
					c0.12-0.03,0.19-0.06,0.23-0.08c0.03-0.02,0.05-0.05,0.06-0.1c0-0.02,0-0.03,0-0.05c0-0.02,0-0.04,0.01-0.07
					c0-0.02,0.01-0.06,0.03-0.13c0.02-0.07,0.04-0.16,0.06-0.26c0.02-0.1,0.05-0.21,0.08-0.32c0.03-0.11,0.05-0.22,0.08-0.32
					s0.04-0.19,0.06-0.26c0.02-0.07,0.03-0.12,0.03-0.13c0.01-0.04,0.02-0.07,0.03-0.09c0.01-0.02,0.03-0.04,0.05-0.06
					c0.02-0.02,0.04-0.03,0.06-0.04C25.66,8.04,25.68,8.02,25.7,8c0.04,0.08,0.11,0.18,0.19,0.31c0.08,0.13,0.17,0.28,0.27,0.44
					c0.1,0.16,0.21,0.33,0.32,0.51c0.11,0.18,0.22,0.35,0.32,0.52c0.11,0.17,0.2,0.32,0.3,0.46s0.17,0.25,0.23,0.34
					c0.05,0.06,0.09,0.11,0.13,0.13c0.04,0.02,0.09,0.04,0.13,0.04c0.06,0,0.14-0.02,0.25-0.05c0.11-0.03,0.23-0.08,0.36-0.13
					c0.13-0.05,0.27-0.11,0.41-0.17c0.14-0.06,0.28-0.13,0.4-0.19c0.13-0.06,0.24-0.12,0.33-0.17C29.45,9.97,29.52,9.93,29.55,9.91z
					"/>
				<path class="st1" d="M36.77,4.49l-0.09-0.03c0.03-0.05,0.06-0.12,0.07-0.15c0.01-0.07-0.02-0.11-0.09-0.13
					c-0.3-0.07-0.59-0.14-0.89-0.21c-0.3-0.07-0.59-0.17-0.86-0.28c-0.01,0-0.02,0-0.02,0c0,0-0.01,0-0.02,0
					c-0.04,0-0.07,0.02-0.1,0.06c-0.01,0.01-0.02,0.05-0.03,0.07l-0.16-0.05l-1.79,3.29l-0.14-3.3c0-0.04-0.02-0.06-0.07-0.06
					c-0.02,0-0.04,0-0.05,0.01c-0.31,0.11-0.63,0.21-0.97,0.28c-0.34,0.07-0.66,0.14-0.98,0.21c-0.06,0.02-0.1,0.05-0.11,0.1
					c0,0.03-0.01,0.06-0.01,0.1c0,0.04,0.01,0.09,0.02,0.16c0.04,0.33,0.08,0.67,0.12,1.03c0.04,0.36,0.08,0.73,0.12,1.1
					c0.04,0.37,0.08,0.74,0.12,1.1c0.04,0.36,0.08,0.7,0.12,1.03c0.04,0.32,0.08,0.62,0.11,0.9c0.02,0.14,0.04,0.27,0.05,0.39
					l-1.32,2.42l2.15,0.75l-2.83,6.35l7.6-9.31l-2.83-0.28L36.77,4.49z"/>
			</g>
		</g>
	</mask>
	<g class="st5">
		<rect x="1.79" y="1.32" transform="matrix(0.9899 -0.1414 0.1414 0.9899 -0.9133 0.3897)" class="st1" width="1" height="10.61"/>
		<polygon class="st1" points="5.58,2.59 5.77,4.91 6.26,4.35 6.12,2.09 		"/>
		<polygon class="st1" points="6.23,6.86 6.59,11.21 7.17,11.02 6.51,6.53 		"/>
		<polygon class="st1" points="9.96,1.86 8.3,5.75 8.37,6.78 11.01,1.56 		"/>
		<path class="st1" d="M11.84,3.92L9.87,7.37l0.42,2.97l3.77,1.26l0.87-0.78l-0.38-1.13c0,0-0.12,0.02-0.23,0.07
			c-1.95,1.17-4.15,0.24-3.37-2.91c0.78-3.16,3.42-2.74,4.64-2.25l0.1-0.31l0.17-0.68L14.13,3.1L11.84,3.92z"/>
		<polygon class="st1" points="14.7,8.47 15.26,5.84 15.07,5.66 14.15,8.63 		"/>
		<path class="st1" d="M17.81,6.83c0.84-2.49,3.26-3.26,5.65-2.58c0,0,0.56,0.47,0.05-0.35s-5.44-1.34-6.45,3.02
			c-1.01,4.36,4.03,4.05,4.03,4.05s1.45-0.52,1.05-0.92c-1.2,0.44-2.55,0.39-3.47-0.23C17.74,9.2,17.39,8.07,17.81,6.83z"/>
		<polygon class="st1" points="22.45,10.74 23.01,10.72 25.08,1.53 24.47,1.46 		"/>
		<polygon class="st1" points="25.94,6.27 25.81,6.78 28.71,4.07 27.94,4.04 		"/>
		<polygon class="st1" points="25.62,8.09 27.28,11.36 28.27,10.81 26.06,7.88 		"/>
		<polygon class="st1" points="31.54,10.34 30.92,4.06 30.59,4 30.19,4.65 30.75,10.2 29.58,12.64 31.73,13.35 30.28,17.36 
			32.62,12.66 30.54,12.2 		"/>
		<polygon class="st1" points="34.55,3.76 32.77,7.09 32.79,8.13 35.15,3.93 		"/>
	</g>
	<path class="st6" d="M35.75,10.19l-5.7,6.99l-1.07,2.41l7.6-9.31L35.75,10.19z"/>
	<path d="M37.13,4.09c-0.03-0.08-0.09-0.14-0.17-0.15l-2.24-0.65c-0.08-0.01-0.15,0.04-0.2,0.11l-1.77,3.2l0.03,0.72l1.84-3.28
		l2.02,0.47l-2.96,5.37c-0.05,0.07-0.06,0.18-0.03,0.26c0.03,0.08,0.09,0.14,0.17,0.15l2.4,0.24l-6.27,7.67l2.22-4.98
		c0.03-0.08,0.04-0.16,0-0.24c-0.04-0.06-0.09-0.12-0.15-0.12l-2.08-0.43l1.17-2.1l-0.09-0.68l-1.38,2.48
		c-0.05,0.07-0.06,0.18-0.03,0.26c0.03,0.08,0.18,0.31,0.24,0.32l1.87,0.65l-2.81,6.17c-0.05,0.1-0.02,0.24,0.05,0.32
		c0.02,0.03,0.06,0.03,0.1,0.04c0.06,0.01,0.13-0.01,0.17-0.06l7.6-9.31c0.05-0.07,0.08-0.18,0.05-0.29
		c-0.03-0.11-0.09-0.17-0.17-0.18L34.28,9.8l2.82-5.45C37.15,4.28,37.16,4.17,37.13,4.09z"/>
</g>
</svg>
